<svg viewBox="0 0 1120 660" xmlns="http://www.w3.org/2000/svg" font-family="Helvetica, Arial, sans-serif" role="img" aria-labelledby="gemm-kernel-tree-title">
<title id="gemm-kernel-tree-title">SelectGemmKernelKind decision tree</title>
<defs><marker id="arrow" markerWidth="10" markerHeight="10" refX="8" refY="3" orient="auto" markerUnits="strokeWidth"><path d="M0,0 L0,6 L9,3 z" fill="#666666"/></marker></defs>
<text x="560.0" y="26" text-anchor="middle" font-size="16" font-weight="bold" fill="#1a1a1a">SelectGemmKernelKind&lt;T&gt;() decision tree (hover a box for details)</text>
<text x="560.0" y="48" text-anchor="middle" font-size="12" font-style="italic" fill="#666666">selected once per (element type, process), then reused for every Gemm call; compile-time gate AND runtime CPUID gate both apply</text>
<g class="node" id="decision-root"><title>The very first split: on a non-x86 target no x86 vector intrinsics are compiled, so SelectGemmKernelKind picks from the ARM (NEON/SVE) kernels or the portable scalar kernel; on an x86 build it reads DetectSimdLevel() once and walks the AVX-512 &gt; AVX2+FMA &gt; AVX &gt; SSE2 ladder.</title><rect x="430" y="66" width="260" height="56" rx="8" ry="8" fill="#eaf1fb" stroke="#4472c4" stroke-width="1.5"/><text x="560.0" y="90.0" text-anchor="middle" font-size="13" fill="#1a1a1a">Non-x86 build?</text><text x="560.0" y="106.0" text-anchor="middle" font-size="13" fill="#1a1a1a">(ONNX_LIGHT_CPU_X86 == 0)</text></g>
<g class="node" id="decision-avx512"><title>Compile-time gate ONNX_LIGHT_CPU_HAVE_AVX512 (toolchain accepted -mavx512f, so gemm_kernel_avx512.cc is in the binary) AND runtime gate DetectSimdLevel() &gt;= kAVX512. 512-bit vectors, NR=2: 32 float / 16 double lanes per step.</title><rect x="40" y="170" width="300" height="56" rx="8" ry="8" fill="#eaf1fb" stroke="#4472c4" stroke-width="1.5"/><text x="190.0" y="194.0" text-anchor="middle" font-size="13" fill="#1a1a1a">AVX-512 compiled in AND</text><text x="190.0" y="210.0" text-anchor="middle" font-size="13" fill="#1a1a1a">DetectSimdLevel() &gt;= kAVX512?</text></g>
<g class="node" id="decision-avx2fma"><title>Compile-time gate ONNX_LIGHT_CPU_HAVE_AVX2_FMA AND runtime DetectSimdLevel() &gt;= kAVX2 AND CpuSupportsFma(). The fused-multiply-add AVX2 micro-kernel: 256-bit vectors with a single rounding per multiply-add, faster and more accurate than plain AVX.</title><rect x="40" y="260" width="300" height="56" rx="8" ry="8" fill="#eaf1fb" stroke="#4472c4" stroke-width="1.5"/><text x="190.0" y="284.0" text-anchor="middle" font-size="13" fill="#1a1a1a">AVX2+FMA compiled in AND level</text><text x="190.0" y="300.0" text-anchor="middle" font-size="13" fill="#1a1a1a">&gt;= kAVX2 AND CpuSupportsFma()?</text></g>
<g class="node" id="decision-avx"><title>Plain AVX (no FMA) is always compiled in at the baseline ONNX_LIGHT_CPU_SIMD_FLAGS (default -mavx2), so only the runtime CPUID probe gates it: 256-bit vectors, NR=2, 16 float / 8 double lanes per step.</title><rect x="40" y="350" width="300" height="56" rx="8" ry="8" fill="#eaf1fb" stroke="#4472c4" stroke-width="1.5"/><text x="190.0" y="374.0" text-anchor="middle" font-size="13" fill="#1a1a1a">DetectSimdLevel()</text><text x="190.0" y="390.0" text-anchor="middle" font-size="13" fill="#1a1a1a">&gt;= kAVX?</text></g>
<g class="node" id="decision-sse2"><title>SSE2 is guaranteed on every x86-64 CPU, so this is the safe baseline: 128-bit vectors, NR=2, 8 float / 4 double lanes per step.</title><rect x="40" y="440" width="300" height="56" rx="8" ry="8" fill="#eaf1fb" stroke="#4472c4" stroke-width="1.5"/><text x="190.0" y="464.0" text-anchor="middle" font-size="13" fill="#1a1a1a">DetectSimdLevel()</text><text x="190.0" y="480.0" text-anchor="middle" font-size="13" fill="#1a1a1a">&gt;= kSSE2?</text></g>
<g class="node" id="leaf-avx512"><title>GemmKernelKind::kAVX512 -- separate translation unit compiled only with -mavx512f.</title><rect x="360" y="170" width="150" height="56" rx="8" ry="8" fill="#e5f3e0" stroke="#548235" stroke-width="1.5"/><text x="435.0" y="203.0" text-anchor="middle" font-size="13" fill="#1a1a1a">AVX-512</text></g>
<g class="node" id="leaf-avx2fma"><title>GemmKernelKind::kAVX2FMA -- fused multiply-add AVX2 kernel (gemm_kernel_avx2_fma.cc).</title><rect x="360" y="260" width="150" height="56" rx="8" ry="8" fill="#e5f3e0" stroke="#548235" stroke-width="1.5"/><text x="435.0" y="293.0" text-anchor="middle" font-size="13" fill="#1a1a1a">AVX2+FMA</text></g>
<g class="node" id="leaf-avx"><title>GemmKernelKind::kAVX -- 256-bit AVX path without FMA, present in every x86 build.</title><rect x="360" y="350" width="150" height="56" rx="8" ry="8" fill="#e5f3e0" stroke="#548235" stroke-width="1.5"/><text x="435.0" y="383.0" text-anchor="middle" font-size="13" fill="#1a1a1a">AVX</text></g>
<g class="node" id="leaf-sse2"><title>GemmKernelKind::kSSE2 -- 128-bit baseline path guaranteed on x86-64.</title><rect x="360" y="440" width="150" height="56" rx="8" ry="8" fill="#e5f3e0" stroke="#548235" stroke-width="1.5"/><text x="435.0" y="473.0" text-anchor="middle" font-size="13" fill="#1a1a1a">SSE2</text></g>
<g class="node" id="leaf-x86-scalar"><title>GemmKernelKind::kScalar -- reached only if runtime detection reports below SSE2, which does not happen on real x86-64 hardware; also the per-tile tail handler.</title><rect x="360" y="530" width="150" height="56" rx="8" ry="8" fill="#e5f3e0" stroke="#548235" stroke-width="1.5"/><text x="435.0" y="563.0" text-anchor="middle" font-size="13" fill="#1a1a1a">Scalar</text></g>
<line x1="560" y1="122" x2="560" y2="146" stroke="#666666" stroke-width="1.5"/>
<path d="M560,146 L190,146 L190,170" fill="none" stroke="#666666" stroke-width="1.5" marker-end="url(#arrow)"/>
<rect x="300" y="138" width="60" height="16" fill="white" opacity="0.85"/>
<text x="330" y="150" text-anchor="middle" font-size="12" font-weight="bold" fill="#666666">no / x86</text>
<line x1="340" y1="198" x2="360" y2="198" stroke="#666666" stroke-width="1.5" marker-end="url(#arrow)"/>
<rect x="336.0" y="190" width="28" height="16" fill="white" opacity="0.85"/>
<text x="350.0" y="202" text-anchor="middle" font-size="12" font-weight="bold" fill="#666666">yes</text>
<line x1="340" y1="288" x2="360" y2="288" stroke="#666666" stroke-width="1.5" marker-end="url(#arrow)"/>
<rect x="336.0" y="280" width="28" height="16" fill="white" opacity="0.85"/>
<text x="350.0" y="292" text-anchor="middle" font-size="12" font-weight="bold" fill="#666666">yes</text>
<line x1="340" y1="378" x2="360" y2="378" stroke="#666666" stroke-width="1.5" marker-end="url(#arrow)"/>
<rect x="336.0" y="370" width="28" height="16" fill="white" opacity="0.85"/>
<text x="350.0" y="382" text-anchor="middle" font-size="12" font-weight="bold" fill="#666666">yes</text>
<line x1="340" y1="468" x2="360" y2="468" stroke="#666666" stroke-width="1.5" marker-end="url(#arrow)"/>
<rect x="336.0" y="460" width="28" height="16" fill="white" opacity="0.85"/>
<text x="350.0" y="472" text-anchor="middle" font-size="12" font-weight="bold" fill="#666666">yes</text>
<line x1="190.0" y1="226" x2="190.0" y2="260" stroke="#666666" stroke-width="1.5" marker-end="url(#arrow)"/>
<rect x="176.0" y="235.0" width="28" height="16" fill="white" opacity="0.85"/>
<text x="190.0" y="247.0" text-anchor="middle" font-size="12" font-weight="bold" fill="#666666">no</text>
<line x1="190.0" y1="316" x2="190.0" y2="350" stroke="#666666" stroke-width="1.5" marker-end="url(#arrow)"/>
<rect x="176.0" y="325.0" width="28" height="16" fill="white" opacity="0.85"/>
<text x="190.0" y="337.0" text-anchor="middle" font-size="12" font-weight="bold" fill="#666666">no</text>
<line x1="190.0" y1="406" x2="190.0" y2="440" stroke="#666666" stroke-width="1.5" marker-end="url(#arrow)"/>
<rect x="176.0" y="415.0" width="28" height="16" fill="white" opacity="0.85"/>
<text x="190.0" y="427.0" text-anchor="middle" font-size="12" font-weight="bold" fill="#666666">no</text>
<path d="M190.0,496 L190.0,558 L360,558" fill="none" stroke="#666666" stroke-width="1.5" marker-end="url(#arrow)"/>
<rect x="176.0" y="519.0" width="28" height="16" fill="white" opacity="0.85"/>
<text x="190.0" y="531.0" text-anchor="middle" font-size="12" font-weight="bold" fill="#666666">no</text>
<g class="node" id="decision-neon"><title>Compile-time gate ONNX_LIGHT_CPU_HAVE_NEON. When absent (e.g. a portable non-SIMD target), the scalar kernel is the only implementation.</title><rect x="620" y="170" width="280" height="56" rx="8" ry="8" fill="#eaf1fb" stroke="#4472c4" stroke-width="1.5"/><text x="760.0" y="194.0" text-anchor="middle" font-size="13" fill="#1a1a1a">ARM NEON compiled in?</text><text x="760.0" y="210.0" text-anchor="middle" font-size="13" fill="#1a1a1a">(ONNX_LIGHT_CPU_HAVE_NEON)</text></g>
<g class="node" id="decision-sve"><title>Compile-time gate ONNX_LIGHT_CPU_HAVE_SVE AND DetectArmGemmProfile().kind == kSve. Scalable Vector Extension: length-agnostic vectors selected ahead of fixed-width NEON.</title><rect x="620" y="300" width="280" height="56" rx="8" ry="8" fill="#eaf1fb" stroke="#4472c4" stroke-width="1.5"/><text x="760.0" y="324.0" text-anchor="middle" font-size="13" fill="#1a1a1a">SVE compiled in AND runtime</text><text x="760.0" y="340.0" text-anchor="middle" font-size="13" fill="#1a1a1a">profile == kSve?</text></g>
<g class="node" id="decision-neon-rt"><title>Runtime ARM profile reports NEON (Advanced SIMD): 128-bit fixed-width vectors, the baseline vector kernel on AArch64.</title><rect x="620" y="430" width="280" height="56" rx="8" ry="8" fill="#eaf1fb" stroke="#4472c4" stroke-width="1.5"/><text x="760.0" y="454.0" text-anchor="middle" font-size="13" fill="#1a1a1a">DetectArmGemmProfile()</text><text x="760.0" y="470.0" text-anchor="middle" font-size="13" fill="#1a1a1a">kind == kNeon?</text></g>
<g class="node" id="leaf-arm-scalar"><title>GemmKernelKind::kScalar -- portable C++ fallback used when no ARM vector kernel is compiled in.</title><rect x="930" y="170" width="150" height="56" rx="8" ry="8" fill="#e5f3e0" stroke="#548235" stroke-width="1.5"/><text x="1005.0" y="203.0" text-anchor="middle" font-size="13" fill="#1a1a1a">Scalar</text></g>
<g class="node" id="leaf-sve"><title>GemmKernelKind::kSve -- scalable-vector ARM kernel (gemm_kernel_arm.cc).</title><rect x="930" y="300" width="150" height="56" rx="8" ry="8" fill="#e5f3e0" stroke="#548235" stroke-width="1.5"/><text x="1005.0" y="333.0" text-anchor="middle" font-size="13" fill="#1a1a1a">SVE</text></g>
<g class="node" id="leaf-neon"><title>GemmKernelKind::kNeon -- 128-bit Advanced SIMD ARM kernel.</title><rect x="930" y="430" width="150" height="56" rx="8" ry="8" fill="#e5f3e0" stroke="#548235" stroke-width="1.5"/><text x="1005.0" y="463.0" text-anchor="middle" font-size="13" fill="#1a1a1a">NEON</text></g>
<g class="node" id="leaf-arm-scalar2"><title>GemmKernelKind::kScalar -- reached when neither SVE nor NEON is available at runtime.</title><rect x="930" y="550" width="150" height="56" rx="8" ry="8" fill="#e5f3e0" stroke="#548235" stroke-width="1.5"/><text x="1005.0" y="583.0" text-anchor="middle" font-size="13" fill="#1a1a1a">Scalar</text></g>
<path d="M560,146 L760,146 L760,170" fill="none" stroke="#666666" stroke-width="1.5" marker-end="url(#arrow)"/>
<rect x="746" y="138" width="28" height="16" fill="white" opacity="0.85"/>
<text x="760" y="150" text-anchor="middle" font-size="12" font-weight="bold" fill="#666666">yes</text>
<line x1="900" y1="198" x2="930" y2="198" stroke="#666666" stroke-width="1.5" marker-end="url(#arrow)"/>
<rect x="901.0" y="190" width="28" height="16" fill="white" opacity="0.85"/>
<text x="915.0" y="202" text-anchor="middle" font-size="12" font-weight="bold" fill="#666666">no</text>
<line x1="900" y1="328" x2="930" y2="328" stroke="#666666" stroke-width="1.5" marker-end="url(#arrow)"/>
<rect x="901.0" y="320" width="28" height="16" fill="white" opacity="0.85"/>
<text x="915.0" y="332" text-anchor="middle" font-size="12" font-weight="bold" fill="#666666">yes</text>
<line x1="900" y1="458" x2="930" y2="458" stroke="#666666" stroke-width="1.5" marker-end="url(#arrow)"/>
<rect x="901.0" y="450" width="28" height="16" fill="white" opacity="0.85"/>
<text x="915.0" y="462" text-anchor="middle" font-size="12" font-weight="bold" fill="#666666">yes</text>
<line x1="760.0" y1="226" x2="760.0" y2="300" stroke="#666666" stroke-width="1.5" marker-end="url(#arrow)"/>
<rect x="746.0" y="255.0" width="28" height="16" fill="white" opacity="0.85"/>
<text x="760.0" y="267.0" text-anchor="middle" font-size="12" font-weight="bold" fill="#666666">yes</text>
<line x1="760.0" y1="356" x2="760.0" y2="430" stroke="#666666" stroke-width="1.5" marker-end="url(#arrow)"/>
<rect x="746.0" y="385.0" width="28" height="16" fill="white" opacity="0.85"/>
<text x="760.0" y="397.0" text-anchor="middle" font-size="12" font-weight="bold" fill="#666666">no</text>
<path d="M760.0,486 L760.0,578 L930,578" fill="none" stroke="#666666" stroke-width="1.5" marker-end="url(#arrow)"/>
<rect x="746.0" y="524.0" width="28" height="16" fill="white" opacity="0.85"/>
<text x="760.0" y="536.0" text-anchor="middle" font-size="12" font-weight="bold" fill="#666666">no</text>
<text x="20" y="644" font-size="11" fill="#666666">Legend: blue = compile-time / runtime gate, green = selected GemmKernelKind. Left = x86 SIMD ladder, right = ARM (NEON/SVE) subtree.</text>
</svg>
